<svg xmlns="http://www.w3.org/2000/svg" width="18" height="18" viewBox="0 0 18 18" fill="none">
  <g clip-path="url(#clip0_9294_1781)">
    <path fill-rule="evenodd" clip-rule="evenodd" d="M0.5625 3.28387C0.5625 2.08944 1.53084 1.12109 2.72531 1.12109H15.2786C16.473 1.12109 17.4413 2.08944 17.4413 3.28391V15.8371C17.4413 17.0316 16.473 17.9999 15.2786 17.9999H2.72531C1.53084 17.9999 0.5625 17.0316 0.5625 15.8371V3.28387ZM2.72531 1.9583C1.99322 1.9583 1.39971 2.55181 1.39971 3.28391V15.8371C1.39971 16.5692 1.99322 17.1627 2.72531 17.1627H15.2786C16.0106 17.1627 16.6041 16.5692 16.6041 15.8371V3.28391C16.6041 2.55181 16.0106 1.9583 15.2786 1.9583H2.72531Z" fill="#949494"/>
    <path fill-rule="evenodd" clip-rule="evenodd" d="M0.5625 3.30344C0.5625 2.10897 1.53084 1.14062 2.72531 1.14062H15.2786C16.473 1.14062 17.4413 2.10897 17.4413 3.30344V6.11762H0.5625V3.30344ZM2.72531 1.97787C1.99322 1.97787 1.39971 2.57134 1.39971 3.30344V5.28041H16.6042V3.30344C16.6042 2.57134 16.0107 1.97787 15.2786 1.97787H2.72531Z" fill="#949494"/>
    <path fill-rule="evenodd" clip-rule="evenodd" d="M5.54939 0C5.31821 0 5.13079 0.187383 5.13079 0.418605V3.17844C5.13079 3.40963 5.31821 3.59705 5.54939 3.59705C5.78058 3.59705 5.968 3.40966 5.968 3.17844V0.418605C5.968 0.187418 5.78058 0 5.54939 0ZM12.535 0C12.3039 0 12.1164 0.187383 12.1164 0.418605V3.17844C12.1164 3.40963 12.3039 3.59705 12.535 3.59705C12.7662 3.59705 12.9537 3.40966 12.9537 3.17844V0.418605C12.9537 0.187418 12.7662 0 12.535 0ZM3.32031 8.83768C3.32031 8.52943 3.57017 8.27954 3.87845 8.27954H5.49677C5.80502 8.27954 6.05491 8.52943 6.05491 8.83768V10.456C6.05491 10.7642 5.80502 11.0141 5.49677 11.0141H3.87845C3.57017 11.0141 3.32031 10.7642 3.32031 10.456V8.83768ZM4.15752 9.11675V10.1769H5.2177V9.11675H4.15752ZM7.63272 8.83768C7.63272 8.52943 7.88261 8.27954 8.19086 8.27954H9.80917C10.1174 8.27954 10.3673 8.52943 10.3673 8.83768V10.456C10.3673 10.7642 10.1174 11.0141 9.80917 11.0141H8.19086C7.88261 11.0141 7.63272 10.7642 7.63272 10.456V8.83768ZM8.46993 9.11675V10.1769H9.5301V9.11675H8.46993ZM11.9448 8.83768C11.9448 8.52943 12.1947 8.27954 12.503 8.27954H14.1213C14.4295 8.27954 14.6794 8.52943 14.6794 8.83768V10.456C14.6794 10.7642 14.4295 11.0141 14.1213 11.0141H12.503C12.1947 11.0141 11.9448 10.7642 11.9448 10.456V8.83768ZM12.7821 9.11675V10.1769H13.8422V9.11675H12.7821ZM3.32031 12.805C3.32031 12.4967 3.57017 12.2468 3.87845 12.2468H5.49677C5.80502 12.2468 6.05491 12.4967 6.05491 12.805V14.4233C6.05491 14.7316 5.80502 14.9814 5.49677 14.9814H3.87845C3.57017 14.9814 3.32031 14.7316 3.32031 14.4233V12.805ZM4.15752 13.084V14.1442H5.2177V13.084H4.15752ZM7.62857 12.805C7.62857 12.4967 7.87846 12.2468 8.18671 12.2468H9.80506C10.1133 12.2468 10.3632 12.4967 10.3632 12.805V14.4233C10.3632 14.7316 10.1133 14.9814 9.80506 14.9814H8.18671C7.87846 14.9814 7.62857 14.7316 7.62857 14.4233V12.805ZM8.46578 13.084V14.1442H9.52599V13.084H8.46578ZM11.9369 12.805C11.9369 12.4967 12.1868 12.2468 12.495 12.2468H14.1134C14.4216 12.2468 14.6715 12.4967 14.6715 12.805V14.4233C14.6715 14.7316 14.4216 14.9814 14.1134 14.9814H12.495C12.1868 14.9814 11.9369 14.7316 11.9369 14.4233V12.805ZM12.7741 13.084V14.1442H13.8343V13.084H12.7741Z" fill="#949494"/>
  </g>
  <defs>
    <clipPath id="clip0_9294_1781">
      <rect width="18" height="18" fill="white"/>
    </clipPath>
  </defs>
</svg>