<svg width="16" height="16" viewBox="0 0 16 16" fill="none" xmlns="http://www.w3.org/2000/svg">
<path d="M7.89871 14.1636L7.89873 14.1635L7.8943 14.1598C7.6288 13.9375 6.31106 12.803 5.06433 11.3556C4.44087 10.6318 3.84534 9.84135 3.408 9.05719C2.96666 8.26588 2.71094 7.5242 2.71094 6.88708C2.71094 3.98092 5.06686 1.625 7.97301 1.625C10.8792 1.625 13.2351 3.98092 13.2351 6.88708C13.2351 7.52421 12.9794 8.2659 12.5381 9.05727C12.1007 9.84148 11.5053 10.632 10.8819 11.356C9.63553 12.8036 8.31836 13.9388 8.0523 14.1636L8.05192 14.1639L7.97502 14.229L7.89871 14.1636ZM7.97358 1.87093L7.97245 1.87093C5.20373 1.87406 2.96003 4.11777 2.95689 6.88648V6.88705C2.95689 7.48214 3.18351 8.11555 3.50079 8.72136C3.82238 9.33539 4.26148 9.96653 4.74003 10.5686C5.6974 11.7731 6.84791 12.9052 7.63909 13.6151L7.97308 13.9148L8.307 13.6151C9.09822 12.9049 10.2487 11.7722 11.206 10.5675C11.6846 9.96532 12.1236 9.3342 12.4452 8.72036C12.7625 8.11477 12.9891 7.48165 12.9891 6.88705L12.9891 6.88648C12.986 4.11777 10.7423 1.87409 7.97358 1.87093Z" fill="#292D32" stroke="#848484"/>
<path d="M7.97154 8.6711C6.98624 8.6711 6.1875 7.87236 6.1875 6.88707C6.1875 5.90177 6.98624 5.10303 7.97154 5.10303C8.95683 5.10303 9.75558 5.90177 9.75558 6.88707C9.75558 7.87236 8.95686 8.6711 7.97154 8.6711ZM7.97154 5.24502C7.06468 5.24502 6.32952 5.98018 6.32952 6.88704C6.32952 7.7939 7.06468 8.52906 7.97154 8.52906C8.8784 8.52906 9.61356 7.7939 9.61356 6.88704C9.61356 5.98019 8.87843 5.24502 7.97154 5.24502Z" fill="#292D32" stroke="#848484"/>
</svg>
