<svg width="9" height="13" viewBox="0 0 9 13" fill="none" xmlns="http://www.w3.org/2000/svg">
<g id="Frame" clip-path="url(#clip0_9123_4875)">
<g id="Group">
<path id="Vector" d="M4.72211 12.0368H2.81673C2.49848 12.0368 2.23958 11.778 2.23958 11.4597V7.16201H1.12794C0.809659 7.16201 0.550781 6.90301 0.550781 6.58483V4.74326C0.550781 4.42499 0.809659 4.16611 1.12794 4.16611H2.23958V3.24391C2.23958 2.32951 2.52669 1.55158 3.0698 0.994294C3.61537 0.434499 4.37781 0.138672 5.27468 0.138672L6.72779 0.141042C7.04551 0.141577 7.30397 0.400478 7.30397 0.718173V2.42805C7.30397 2.7463 7.04516 3.0052 6.72697 3.0052L5.74861 3.00555C5.45022 3.00555 5.37423 3.06536 5.35799 3.0837C5.33122 3.11414 5.29936 3.20008 5.29936 3.43746V4.16604H6.65347C6.75539 4.16604 6.85416 4.19118 6.93903 4.23854C7.12215 4.34086 7.23597 4.5343 7.23597 4.74335L7.23525 6.58494C7.23525 6.90301 6.97635 7.16191 6.65809 7.16191H5.29933V11.4597C5.29936 11.778 5.04039 12.0368 4.72211 12.0368ZM2.93708 11.3393H4.60173V6.84975C4.60173 6.63725 4.77468 6.46441 4.98708 6.46441H6.53772L6.53835 4.86366H4.98698C4.77458 4.86366 4.60173 4.69083 4.60173 4.47832V3.43748C4.60173 3.16499 4.62944 2.85508 4.83512 2.62213C5.08368 2.34055 5.47537 2.30807 5.74842 2.30807L6.60644 2.30769V0.838363L5.27412 0.836202C3.83277 0.836202 2.93711 1.75884 2.93711 3.24393V4.4783C2.93711 4.6907 2.76426 4.86364 2.55183 4.86364H1.24831V6.46438H2.55183C2.76426 6.46438 2.93711 6.63723 2.93711 6.84973L2.93708 11.3393Z" fill="#1CA8CB"/>
</g>
</g>
<defs>
<clipPath id="clip0_9123_4875">
<rect width="8.32872" height="11.8982" fill="white" transform="translate(0.519531 0.138672)"/>
</clipPath>
</defs>
</svg>
