<svg width="9" height="9" viewBox="0 0 9 9" fill="none" xmlns="http://www.w3.org/2000/svg">
<g id="Frame" clip-path="url(#clip0_9123_4922)">
<g id="Group">
<path id="Vector" d="M4.50456 2.18945C4.20129 2.1894 3.90099 2.2491 3.62079 2.36513C3.3406 2.48117 3.08601 2.65126 2.87157 2.86571C2.65712 3.08015 2.48703 3.33474 2.37099 3.61493C2.25496 3.89513 2.19526 4.19543 2.19531 4.4987C2.19526 4.80197 2.25496 5.10228 2.37099 5.38247C2.48703 5.66267 2.65712 5.91726 2.87157 6.1317C3.08601 6.34614 3.3406 6.51624 3.62079 6.63227C3.90099 6.74831 4.20129 6.808 4.50456 6.80795C4.80783 6.808 5.10814 6.74831 5.38833 6.63227C5.66853 6.51624 5.92312 6.34614 6.13756 6.1317C6.352 5.91726 6.5221 5.66267 6.63813 5.38247C6.75417 5.10228 6.81386 4.80197 6.81381 4.4987C6.81386 4.19543 6.75417 3.89513 6.63813 3.61493C6.5221 3.33474 6.352 3.08015 6.13756 2.86571C5.92312 2.65126 5.66853 2.48117 5.38833 2.36513C5.10814 2.2491 4.80783 2.1894 4.50456 2.18945ZM4.50456 5.99758C4.20822 5.9975 3.91855 5.90956 3.67218 5.74488C3.42581 5.58019 3.2338 5.34616 3.12043 5.07236C3.00706 4.79856 2.97742 4.49729 3.03525 4.20664C3.09308 3.916 3.23579 3.64902 3.44534 3.43948C3.65488 3.22993 3.92186 3.08722 4.2125 3.02939C4.50315 2.97156 4.80442 3.0012 5.07822 3.11457C5.35202 3.22794 5.58605 3.41995 5.75074 3.66632C5.91542 3.91269 6.00336 4.20236 6.00344 4.4987C6.00354 4.69557 5.96483 4.89052 5.88954 5.07241C5.81425 5.25431 5.70385 5.41958 5.56465 5.55879C5.42544 5.69799 5.26017 5.80839 5.07827 5.88368C4.89638 5.95897 4.70143 5.99768 4.50456 5.99758Z" fill="#1CA8CB"/>
<path id="Vector_2" d="M6.35559 0.02827C5.52759 -0.010355 3.47671 -0.00848 2.64796 0.02827C1.91971 0.062395 1.27734 0.23827 0.75946 0.756145C-0.10604 1.62164 0.00458522 2.7879 0.00458522 4.49827C0.00458522 6.24877 -0.0929148 7.38802 0.75946 8.24039C1.62834 9.10889 2.81146 8.99527 4.50159 8.99527C6.23559 8.99527 6.83408 8.99639 7.44721 8.75902C8.28084 8.43539 8.91008 7.69027 8.97159 6.35189C9.01058 5.52352 9.00834 3.47302 8.97159 2.64427C8.89734 1.0644 8.04946 0.10627 6.35559 0.02827ZM7.66621 7.66777C7.09884 8.23514 6.31171 8.18452 4.49071 8.18452C2.61571 8.18452 1.86384 8.21227 1.31521 7.66214C0.683335 7.03327 0.79771 6.0234 0.79771 4.49227C0.79771 2.42039 0.585085 0.92827 2.66446 0.82177C3.14221 0.804895 3.28284 0.79927 4.48546 0.79927L4.50234 0.81052C6.50071 0.81052 8.06859 0.60127 8.16271 2.68027C8.18408 3.15464 8.18896 3.29715 8.18896 4.4979C8.18859 6.35114 8.22383 7.10752 7.66621 7.66777Z" fill="#1CA8CB"/>
<path id="Vector_3" d="M6.90291 2.63784C7.20093 2.63784 7.44253 2.39625 7.44253 2.09822C7.44253 1.80019 7.20093 1.55859 6.90291 1.55859C6.60488 1.55859 6.36328 1.80019 6.36328 2.09822C6.36328 2.39625 6.60488 2.63784 6.90291 2.63784Z" fill="#1CA8CB"/>
</g>
</g>
<defs>
<clipPath id="clip0_9123_4922">
<rect width="9" height="9" fill="white"/>
</clipPath>
</defs>
</svg>
