<svg width="10" height="10" viewBox="0 0 10 10" fill="none" xmlns="http://www.w3.org/2000/svg">
<g id="Frame" clip-path="url(#clip0_9123_4914)">
<g id="Group">
<path id="Vector" d="M2.6126 9.79627H0.00390625V3.0572H2.6126V9.79627ZM0.438661 9.36152H2.17785V3.49196H0.438661V9.36152ZM10.0039 9.79627H7.39523V6.10065C7.39523 5.74049 7.10322 5.44848 6.74306 5.44848C6.38281 5.44848 6.09089 5.74049 6.09089 6.10065V9.79627H3.48219V3.0572H6.09089V3.49467C6.48464 3.20998 6.95822 3.05689 7.44411 3.0572C8.85443 3.0572 10.0039 4.20122 10.0039 5.60883V9.79627ZM7.82999 9.36152H9.56909V5.60881C9.56616 4.43775 8.61518 3.49045 7.44411 3.49196C6.90881 3.49196 6.40607 3.71749 6.03109 4.1251L5.65605 4.53543V3.49196H3.91695V9.36152H5.65605V6.10065C5.65605 5.5003 6.14271 5.01372 6.74306 5.01372C7.34332 5.01372 7.82999 5.5003 7.82999 6.10065V9.36152ZM1.30825 2.62237C0.587846 2.62237 0.00390625 2.03843 0.00390625 1.31802C0.00390625 0.597693 0.587846 0.0136719 1.30825 0.0136719C2.02866 0.0136719 2.6126 0.597693 2.6126 1.31802C2.61109 2.03777 2.02801 2.62094 1.30825 2.62237ZM1.30825 0.448508C0.828029 0.448508 0.438661 0.837815 0.438661 1.31802C0.438661 1.7983 0.828029 2.18761 1.30825 2.18761C1.78848 2.18761 2.17785 1.7983 2.17785 1.31802C2.17785 0.837815 1.78846 0.448508 1.30825 0.448508Z" fill="#1CA8CB"/>
</g>
</g>
<defs>
<clipPath id="clip0_9123_4914">
<rect width="10" height="10" fill="white" transform="translate(0.00390625)"/>
</clipPath>
</defs>
</svg>
