<svg width="11" height="11" viewBox="0 0 11 11" fill="none" xmlns="http://www.w3.org/2000/svg">
<g id="Frame" clip-path="url(#clip0_9123_4887)">
<g id="Group">
<path id="Vector" d="M0.502138 8.71692C1.49358 9.34365 2.64307 9.67491 3.81598 9.6719C5.54869 9.6719 7.13648 9.0063 8.28733 7.79784C9.38855 6.64123 9.99433 5.08711 9.96419 3.50995C10.3816 3.15278 10.8726 2.47078 10.8726 1.80606C10.8727 1.74748 10.8572 1.68994 10.8279 1.63926C10.7985 1.58858 10.7563 1.54656 10.7054 1.51746C10.6546 1.48835 10.597 1.4732 10.5384 1.47353C10.4798 1.47386 10.4224 1.48967 10.3719 1.51934C9.9797 1.74978 9.62208 1.81005 9.25427 1.70679C8.50314 0.974717 7.38508 0.820502 6.44295 1.32835C5.61959 1.77149 5.16182 2.58245 5.20303 3.46874C3.80681 3.29842 2.52869 2.60029 1.63083 1.51757C1.59674 1.47632 1.55318 1.44391 1.50388 1.4231C1.45457 1.40229 1.40097 1.3937 1.34763 1.39805C1.29429 1.4024 1.24278 1.41957 1.1975 1.44809C1.15222 1.47661 1.11449 1.51565 1.08753 1.56188C0.65591 2.30105 0.660341 3.15765 1.03569 3.84941C0.954384 3.86293 0.880588 3.90505 0.827609 3.96819C0.77463 4.03133 0.745955 4.11131 0.746755 4.19373C0.747886 4.53014 0.821411 4.86237 0.962336 5.16785C1.10326 5.47332 1.30828 5.74489 1.56347 5.9641C1.51818 6.00757 1.48614 6.063 1.47108 6.12394C1.45602 6.18489 1.45856 6.24886 1.47839 6.30842C1.58688 6.63208 1.76357 6.92869 1.99651 7.17821C2.22944 7.42774 2.51322 7.62438 2.82865 7.75485C2.17307 8.06763 1.44269 8.18956 0.721052 8.10671C0.373626 8.05974 0.202128 8.52681 0.502138 8.71692ZM3.90683 7.86874C4.15543 7.67774 4.02338 7.2798 3.7114 7.27315C3.44536 7.26751 3.18418 7.20071 2.94811 7.07791C2.71204 6.9551 2.5074 6.77961 2.35006 6.565C2.50333 6.5557 2.65532 6.53136 2.80384 6.49233C3.14107 6.40104 3.12512 5.91447 2.78257 5.84578C2.48286 5.78579 2.20476 5.64638 1.97737 5.44214C1.74997 5.23789 1.58162 4.97631 1.48991 4.68474C1.65698 4.72595 1.82714 4.74899 1.99687 4.75209C2.33322 4.75387 2.4604 4.32269 2.18609 4.14232C1.5679 3.73507 1.30423 3.01585 1.47883 2.33961C2.56647 3.43956 4.02712 4.09153 5.57217 4.1667C5.62345 4.16925 5.67463 4.15988 5.72168 4.13931C5.76872 4.11874 5.81036 4.08753 5.8433 4.04814C5.87624 4.00876 5.8996 3.96227 5.91153 3.91233C5.92346 3.86238 5.92365 3.81036 5.91206 3.76033C5.70157 2.84789 6.21119 2.20844 6.75847 1.91374C7.3 1.62127 8.16945 1.52998 8.83594 2.22926C9.03403 2.43798 9.70229 2.44596 10.0422 2.36664C9.88974 2.6538 9.65532 2.92633 9.43596 3.07966C9.38994 3.11188 9.35283 3.15524 9.32811 3.20569C9.30339 3.25614 9.29186 3.31203 9.2946 3.36815C9.36594 4.82388 8.82353 6.2712 7.80651 7.33874C6.78196 8.41425 5.36522 9.00674 3.81643 9.00674C3.20045 9.00674 2.59645 8.90659 2.02567 8.71338C2.70812 8.58132 3.35644 8.29239 3.90683 7.86874Z" fill="#1CA8CB"/>
</g>
</g>
<defs>
<clipPath id="clip0_9123_4887">
<rect width="10.6355" height="10.6355" fill="white" transform="translate(0.300781 0.0332031)"/>
</clipPath>
</defs>
</svg>
