<svg width="9" height="7" viewBox="0 0 9 7" fill="none" xmlns="http://www.w3.org/2000/svg">
<g id="Frame" clip-path="url(#clip0_9123_4931)">
<g id="Group">
<path id="Vector" d="M5.83218 2.98227L3.86028 1.90335C3.7469 1.84131 3.61289 1.84362 3.50175 1.90947C3.39055 1.97538 3.32422 2.09183 3.32422 2.22108V4.36042C3.32422 4.48906 3.39015 4.6053 3.5006 4.67128C3.55827 4.70573 3.62222 4.72304 3.6863 4.72304C3.74626 4.72295 3.80526 4.70795 3.85798 4.67939L5.82993 3.61906C5.88737 3.58818 5.93541 3.54236 5.96897 3.48645C6.00253 3.43053 6.02036 3.36659 6.02059 3.30138C6.02086 3.23614 6.00349 3.17205 5.97032 3.11588C5.93716 3.05971 5.88942 3.01354 5.83218 2.98227ZM3.84727 4.09129V2.49239L5.32105 3.29878L3.84727 4.09129Z" fill="#1CA8CB"/>
<path id="Vector_2" d="M8.85603 1.59655L8.85563 1.59247C8.84806 1.52063 8.77282 0.881611 8.46217 0.556577C8.10309 0.174276 7.69598 0.127835 7.50021 0.105573C7.48541 0.103941 7.47064 0.102168 7.45588 0.100256L7.44027 0.098635C6.26032 0.0128309 4.47829 0.00111602 4.46045 0.00104629L4.45889 0.000976562L4.45732 0.00104629C4.43948 0.00111602 2.65745 0.0128309 1.46685 0.098635L1.45112 0.100256C1.43845 0.101965 1.42448 0.103534 1.4093 0.105312C1.21578 0.127626 0.813046 0.174154 0.452955 0.570261C0.157068 0.891827 0.0715428 1.51716 0.0627567 1.58743L0.0617456 1.59655C0.0590784 1.62644 -0.00390625 2.33814 -0.00390625 3.0526V3.72049C-0.00390625 4.43497 0.0590784 5.14665 0.0617456 5.17661L0.0622163 5.18109C0.0697821 5.25178 0.144952 5.8791 0.454175 6.20426C0.791813 6.57375 1.21871 6.62264 1.44833 6.64893C1.48463 6.65308 1.51588 6.65662 1.53719 6.66037L1.55783 6.66323C2.23913 6.72806 4.37526 6.75998 4.46582 6.76129L4.46856 6.76136L4.47128 6.76129C4.48911 6.76122 6.27108 6.7495 7.45107 6.6637L7.46665 6.66208C7.48157 6.66009 7.49833 6.65833 7.5167 6.65641C7.70916 6.63598 8.10969 6.59357 8.46482 6.20281C8.7607 5.88121 8.8463 5.25586 8.85501 5.18566L8.85603 5.17654C8.85869 5.14658 8.92175 4.43495 8.92175 3.72049V3.0526C8.92168 2.33812 8.85869 1.62651 8.85603 1.59655ZM8.39862 3.72049C8.39862 4.38178 8.34089 5.06281 8.33543 5.12533C8.31324 5.29756 8.22299 5.69318 8.07884 5.84988C7.85657 6.09441 7.62825 6.11866 7.46154 6.1363C7.44296 6.13821 7.42439 6.1403 7.40585 6.14256C6.26454 6.22509 4.5498 6.23775 4.47081 6.23823C4.38222 6.23694 2.27733 6.20473 1.6168 6.14338C1.58295 6.13786 1.54637 6.13364 1.50785 6.12928C1.31234 6.10688 1.04471 6.07623 0.838934 5.84988L0.834088 5.84471C0.692446 5.69714 0.604812 5.32716 0.582532 5.12737C0.578384 5.08012 0.519147 4.39104 0.519147 3.72049V3.0526C0.519147 2.39207 0.576762 1.71178 0.582341 1.64797C0.608839 1.44511 0.700762 1.07344 0.838934 0.923206C1.068 0.67125 1.30955 0.64334 1.4693 0.624878C1.48456 0.6231 1.49878 0.621479 1.51193 0.619771C2.66985 0.536825 4.39691 0.5245 4.45889 0.52403C4.52086 0.524431 6.24731 0.536825 7.39495 0.619771C7.40904 0.621549 7.42443 0.623309 7.44097 0.625227C7.60529 0.64395 7.85364 0.672278 8.08157 0.915378L8.08367 0.917627C8.22532 1.0652 8.31296 1.44164 8.33522 1.64545C8.33918 1.69006 8.39862 2.38062 8.39862 3.0526V3.72049Z" fill="#1CA8CB"/>
</g>
</g>
<defs>
<clipPath id="clip0_9123_4931">
<rect width="8.92562" height="6.75" fill="white"/>
</clipPath>
</defs>
</svg>
